<svg xmlns="http://www.w3.org/2000/svg" viewBox="0 0 735.4 212.8" width="auto" height="60px"><path fill="#173B34" d="M693.2,73.2c-2.2,15.3-8.7,25.5-16.7,31.5c-6.1,4.3-13.6,6.8-20.1,6.8s-11.4-1.7-16.5-5.3 c-0.4-0.4-0.7-0.5-1.2-0.9c-11.6-8.5-42.3-30.7-42.3-30.7c-0.5,11.1,0.9,21.6,4.6,30.7c8,19.9,25.7,33.6,52.5,33.6 s28.3-3.1,41.9-13.6c6.6-5,13.1-12.2,18.1-19.9l0,0c0-0.2,0.2-0.2,0.2-0.4c0-0.2,0.2-0.2,0.2-0.4l0,0c6.1-9.7,10.4-21.5,11.6-33.6 c0.2-1.3,0.4-3.1,0.4-5.3H694c0,2.4-0.4,5-0.7,7.5L693.2,73.2z M368.3,82.4l-2.4,22.7l-3.4,30.8h85.7c8.7-0.2,16.2-7.4,16.8-16.2 l0.9-9.4h-68.7l0.5-5.3l2.4-23.5l0.2-2.2h41.9c5.8-0.4,11.4-0.9,17.2-1.3l2.4-23.3H403l2.6-23.7h48c8.3-0.2,15.3-6.5,16.5-14.6 c0-0.5,0.2-1.2,0.2-1.7l0.9-9H376l-7.8,76.7L368.3,82.4z M544.5,6.2h-58.1L479,76.4l-3.1,28.8l-3.4,30.8h17.2 c8.3-0.2,15.3-6.5,16.7-14.6l0.2-1.7l1.7-14.8l1.7-15.5h20.1l7,15.5l6.5,14.6c0,0,2.2,5,3.1,7.2c2.2,5.3,7.4,9,13.6,9h25.9 L571.8,105L562,83.9c7.8-2.7,22.3-8,28.1-25.7c0.9-2.9,1.7-6.5,2-10.2c1.3-11.8-1.9-22.2-7-28.8C574.7,6.5,558,6.4,544.4,6.2 L544.5,6.2z M560.4,47.9c-1.9,17.4-16.7,17.7-21.3,17.9h-26.6l3.9-35.1h27.4C550.3,30.7,562,31.2,560.4,47.9z M712.3,19.6 c-5.1-6.1-12.1-11.3-21.5-14.6c-7.5-2.7-15.5-3.9-23.1-3.9c-36.3,0-60.3,25.4-68.3,55.2c-1.2,4.4-2,8.9-2.4,13.3 c-0.2,1.7-0.4,3.4-0.4,4.8h31.8c0-1.7,0.2-3.5,0.4-5.3c0.9-8.3,3.4-15.9,6.8-22.2c6.5-11.4,16.8-18.7,29.6-18.7 c12.8,0,10.9,1.5,15.2,4.3c0.9,0.5,1.7,1.2,2.4,1.7c5.8,4.3,43.4,31.4,43.4,31.4c0.4-10.7-1.2-30.8-13.8-46V19.6z M123.6,69.4 c2-3.7,3.7-7.8,5-11.8c0.7-2.7,1.3-5.6,1.7-8.3c0.9-8.9-0.4-19.4-4.4-26.6C116.3,6.3,97.6,6.3,76.3,6.3H24.6l-2,18.4l-8.9,80.6 l-3.4,30.8h17.2c8.3-0.2,15.3-6.5,16.7-14.6l0.2-1.7l1.7-14.8l1.3-11.6h21.3C86.1,93.2,110,92.7,123.6,69.4L123.6,69.4z M97.9,49.1 c0,0.4,0,0.5-0.2,0.9c-2.4,19.2-16.8,19.6-28.6,19.6H49.9l3.5-33.1l0.7-6.3h20.3C83.7,30,99.9,30,97.9,49.1L97.9,49.1z M218.2,73.5 L200.8,6.3h-33.6l-25.7,54.3l-21.3,44.7l-14.6,30.8h23.3c6.3,0,11.8-3.7,14.6-9c1.2-2.2,3.1-7.2,3.1-7.2l1.9-4.6H196l0.9,4.6 l0.5,3.4c0,0.5,0.2,1.2,0.4,1.7c1.7,6.5,7.4,11.3,14.5,11.3h22.2l-8-30.8l-8.3-31.8L218.2,73.5z M158.6,92 c2.9-7.2,7.2-17.2,10.7-26.1c1.3-3.1,2.6-6.1,3.5-8.9c2.6-6.6,5.1-13.5,7.4-20.1l6.3,31.8l4.6,23.1h-32.5v0.2V92z M299.1,80.8 l-0.9,7.8h27.6l-1.9,16.5l-0.9,7.8h-28.3c-8.2-0.4-15.2-3.5-19.4-7.8c-0.5-0.5-1.2-1.2-1.7-1.7c-4.4-5.1-7-14-7.2-24.9 c0-2.6,0.2-5.3,0.4-8.2c2.4-21.8,13.3-37.8,37.8-37.8H328c8-0.4,14.8-6.6,16-14.6l0.2-1.7l1.2-10.4h-39.9 c-36.6,0-65.9,23.5-70.4,65.2c-0.2,1.5-0.2,2.7-0.4,4.1c-0.7,11.1,0.5,21.3,3.7,29.8c7.2,19.2,23.7,31,47.7,31 c24,0,11.3-0.2,11.3-0.2h51.9l3.4-30.8L355,82l2-18.4h-56l-2,17.2L299.1,80.8z"></path><g><path fill="#173B34" d="M122.3,210.6v-30h10.5c2.3,0,4.3,0.4,5.9,1.2c1.6,0.7,2.7,1.9,3.5,3.2c0.7,1.4,1.2,2.9,1.2,4.6 c0,1.7-0.3,3.1-1,4.5s-1.9,2.4-3.4,3.2c-1.5,0.8-3.5,1.2-5.9,1.2h-6v12.1h-4.5H122.3z M126.8,194.8h5.8c2.1,0,3.7-0.4,4.6-1.4 s1.4-2.2,1.4-3.8c0-1.6-0.4-2.9-1.4-3.9c-0.9-0.9-2.4-1.4-4.6-1.4h-5.8v10.5V194.8z"></path><path fill="#173B34" d="M153.6,211.1c-1.8,0-3.2-0.3-4.4-0.9c-1.2-0.6-2-1.4-2.6-2.4c-0.5-0.9-0.8-2.1-0.8-3.2c0-2.1,0.8-3.7,2.4-4.9 c1.6-1.2,3.9-1.8,6.8-1.8h5.6v-0.4c0-1.7-0.4-2.9-1.4-3.8s-2.1-1.3-3.5-1.3s-2.3,0.3-3.2,0.9s-1.5,1.5-1.7,2.7h-4.5 c0.1-1.6,0.6-2.8,1.6-4s2-2,3.5-2.5c1.4-0.6,2.9-0.8,4.6-0.8c2.9,0,5.2,0.7,6.9,2.3c1.7,1.6,2.4,3.7,2.4,6.4v13.1h-4l-0.4-3.7 c-0.6,1.2-1.5,2.2-2.6,2.9c-1.2,0.8-2.6,1.2-4.5,1.2L153.6,211.1z M154.5,207.5c1.3,0,2.3-0.3,3.1-0.8c0.8-0.6,1.5-1.4,2-2.3 c0.4-0.9,0.7-2,0.8-3.2h-5c-1.8,0-3,0.3-3.9,0.9c-0.7,0.6-1.2,1.4-1.2,2.3c0,0.9,0.3,1.8,1,2.3s1.7,0.8,2.9,0.8H154.5z"></path><path fill="#173B34" d="M170.3,210.6v-21.3h4.1l0.4,4c0.7-1.4,1.8-2.5,3.1-3.4c1.4-0.8,2.9-1.3,4.8-1.3v4.7h-1.3 c-1.3,0-2.4,0.2-3.4,0.6c-0.9,0.4-1.8,1.2-2.3,2.1c-0.6,0.9-0.8,2.3-0.8,4.1v10.2h-4.5L170.3,210.6z"></path><path fill="#173B34" d="M195.5,210.6c-2.1,0-3.8-0.5-4.9-1.5c-1.3-1-1.9-2.8-1.9-5.4v-10.5H185v-3.8h3.7l0.5-5.3h4v5.3h6v3.8h-6v10.5 c0,1.2,0.2,2,0.7,2.4s1.4,0.6,2.6,0.6h2.4v3.9H195.5z"></path><path fill="#173B34" d="M224.6,211.1c-2,0-3.9-0.4-5.4-1.4s-2.9-2.2-3.9-3.9c-0.9-1.7-1.4-3.7-1.4-5.9s0.5-4.2,1.5-5.9 c0.9-1.7,2.2-2.9,3.9-3.9c1.7-0.9,3.5-1.4,5.4-1.4s3.9,0.4,5.4,1.4c1.6,0.9,2.9,2.2,3.9,3.9c0.9,1.7,1.5,3.7,1.5,5.9 s-0.5,4.2-1.5,5.9s-2.2,2.9-3.9,3.9c-1.7,0.9-3.5,1.4-5.4,1.4H224.6z M224.6,207.2c1,0,2.1-0.3,3-0.8s1.7-1.4,2.2-2.4 c0.5-1,0.8-2.4,0.8-4s-0.3-2.9-0.8-4c-0.5-1-1.3-1.9-2.2-2.4s-1.9-0.8-3-0.8s-2.1,0.3-3,0.8c-0.9,0.5-1.7,1.4-2.2,2.4 s-0.8,2.4-0.8,4s0.3,2.9,0.8,4c0.5,1,1.4,1.9,2.2,2.4C222.5,206.9,223.5,207.2,224.6,207.2z"></path><path fill="#173B34" d="M241.4,210.6v-17.4h-3v-3.8h3v-3c0-2.3,0.6-4,1.8-5c1.2-1,2.8-1.5,4.9-1.5h2.2v3.9h-1.6c-1,0-1.7,0.2-2.1,0.6 c-0.4,0.4-0.6,1.2-0.6,2.1v3h4.9v3.8H246v17.4h-4.5L241.4,210.6z"></path><path fill="#173B34" d="M273.1,210.6v-26.3h-8.9v-3.7h22.2v3.7h-8.8v26.3H273.1L273.1,210.6z"></path><path fill="#173B34" d="M290.5,210.6v-30.8h4.5v13c0.7-1.3,1.7-2.2,2.9-2.9c1.3-0.7,2.7-1,4.2-1c2.5,0,4.5,0.8,6,2.4 c1.5,1.6,2.2,4,2.2,7.1v12.2h-4.5v-11.7c0-4.1-1.7-6.2-4.9-6.2s-3.1,0.6-4.3,1.8s-1.7,2.9-1.7,5.1v11h-4.5L290.5,210.6z"></path><path fill="#173B34" d="M325.7,211.1c-2,0-3.9-0.4-5.4-1.4s-2.9-2.2-3.9-3.9c-0.9-1.7-1.4-3.7-1.4-5.9s0.5-4.2,1.5-5.9 s2.2-2.9,3.9-3.9c1.7-0.9,3.5-1.4,5.4-1.4s3.9,0.4,5.4,1.4c1.6,0.9,2.9,2.2,3.9,3.9c0.9,1.7,1.5,3.7,1.5,5.9s-0.5,4.2-1.5,5.9 s-2.2,2.9-3.9,3.9c-1.7,0.9-3.5,1.4-5.4,1.4H325.7z M325.7,207.2c1,0,2.1-0.3,3-0.8s1.7-1.4,2.2-2.4c0.5-1,0.8-2.4,0.8-4 s-0.3-2.9-0.8-4s-1.3-1.9-2.2-2.4s-1.9-0.8-3-0.8s-2.1,0.3-3,0.8c-0.9,0.5-1.7,1.4-2.2,2.4s-0.8,2.4-0.8,4s0.3,2.9,0.8,4 c0.5,1,1.4,1.9,2.2,2.4C323.6,206.9,324.6,207.2,325.7,207.2z"></path><path fill="#173B34" d="M341.5,210.6v-21.3h4l0.4,3c0.7-1,1.6-2,2.7-2.6s2.4-0.9,3.9-0.9c3.4,0,5.7,1.4,7,4c0.7-1.3,1.8-2.2,3.1-2.9 c1.3-0.7,2.7-1,4.2-1c2.6,0,4.7,0.8,6.3,2.4c1.5,1.6,2.3,4,2.3,7.1v12.2h-4.5v-11.7c0-4.1-1.6-6.2-4.7-6.2c-3.1,0-2.9,0.6-3.9,1.8 c-1,1.2-1.5,2.9-1.5,5.1v11h-4.5v-11.7c0-4.1-1.6-6.2-4.7-6.2c-3.1,0-2.8,0.6-3.9,1.8s-1.6,2.9-1.6,5.1v11h-4.5L341.5,210.6z"></path><path fill="#173B34" d="M389.1,211.1c-2.7,0-4.9-0.6-6.6-2c-1.8-1.4-2.7-3-3-5.2h4.6c0.2,0.9,0.7,1.8,1.7,2.5c0.8,0.7,2,1,3.4,1 s2.4-0.3,3-0.8s0.9-1.3,0.9-2c0-1-0.4-1.8-1.3-2.2c-0.8-0.4-2.1-0.7-3.7-1c-1.2-0.2-2.4-0.6-3.6-1s-2.2-1-2.9-1.8 c-0.7-0.7-1.2-1.9-1.2-3.1s0.7-3.4,2.1-4.6c1.5-1.3,3.5-1.9,6-1.9s4.3,0.5,5.8,1.7c1.5,1.2,2.3,2.7,2.6,4.8h-4.4 c-0.1-0.9-0.5-1.7-1.3-2.1s-1.7-0.7-2.8-0.7s-2,0.2-2.6,0.7c-0.6,0.4-0.9,1-0.9,1.8s0.4,1.4,1.3,1.8c0.8,0.4,2,0.8,3.5,1.2 c1.5,0.3,2.7,0.6,4,1c1.3,0.4,2.2,1,2.9,1.8c0.7,0.8,1.2,2,1.2,3.6c0,2-0.7,3.6-2.2,4.8c-1.6,1.3-3.6,1.9-6.2,1.9L389.1,211.1z"></path><path fill="#173B34" d="M412.5,211.1c-2,0-3.9-0.4-5.4-1.4c-1.6-0.9-2.9-2.2-3.9-3.9c-0.9-1.7-1.4-3.7-1.4-5.9s0.5-4.2,1.5-5.9 s2.2-2.9,3.9-3.9c1.7-0.9,3.5-1.4,5.4-1.4s3.9,0.4,5.4,1.4c1.6,0.9,2.9,2.2,3.9,3.9s1.5,3.7,1.5,5.9s-0.5,4.2-1.5,5.9 c-0.9,1.7-2.2,2.9-3.9,3.9c-1.7,0.9-3.5,1.4-5.4,1.4H412.5z M412.5,207.2c1,0,2.1-0.3,3-0.8s1.7-1.4,2.2-2.4c0.5-1,0.8-2.4,0.8-4 s-0.3-2.9-0.8-4s-1.3-1.9-2.2-2.4s-1.9-0.8-3-0.8s-2.1,0.3-3,0.8s-1.7,1.4-2.2,2.4c-0.5,1-0.8,2.4-0.8,4s0.3,2.9,0.8,4 c0.5,1,1.4,1.9,2.2,2.4C410.4,206.9,411.3,207.2,412.5,207.2z"></path><path fill="#173B34" d="M428.2,210.6v-21.3h4l0.3,3.8c0.6-1.4,1.6-2.3,2.9-3.1c1.3-0.7,2.7-1.2,4.4-1.2c2.6,0,4.6,0.8,6.1,2.4 c1.5,1.6,2.2,4,2.2,7.1v12.2h-4.5v-11.7c0-4.1-1.7-6.2-5-6.2s-3,0.6-4.2,1.8c-1,1.2-1.7,2.9-1.7,5.1v11h-4.5L428.2,210.6z"></path><path fill="#173B34" d="M464.5,210.6v-30h10.3c2.4,0,4.3,0.4,5.9,1.2c1.6,0.8,2.6,1.9,3.4,3.2c0.7,1.4,1.2,2.8,1.2,4.5 c0,1.7-0.5,3.6-1.5,5s-2.5,2.6-4.6,3.2l6.4,12.7h-5.2l-5.9-12.1H469v12.1h-4.5L464.5,210.6z M469,195.1h5.6c2.1,0,3.6-0.5,4.5-1.5 c0.9-1,1.5-2.3,1.5-3.9c0-1.6-0.4-2.8-1.4-3.9c-0.9-0.9-2.5-1.5-4.6-1.5h-5.4v10.7H469z"></path><path fill="#173B34" d="M499,211.1c-2.1,0-4-0.4-5.6-1.4s-2.8-2.2-3.8-3.9c-0.9-1.7-1.4-3.6-1.4-5.8s0.4-4.2,1.4-5.9 c0.9-1.7,2.2-3,3.8-4c1.6-0.9,3.5-1.4,5.7-1.4s3.9,0.4,5.4,1.4c1.6,0.9,2.7,2.2,3.6,3.7c0.8,1.6,1.3,3.2,1.3,5.1c0,1.9,0,0.6,0,0.9 s0,0.7,0,1h-16.6c0.1,2.1,0.8,3.7,2,4.7c1.3,1,2.6,1.6,4.2,1.6s2.4-0.3,3.2-0.8c0.8-0.6,1.5-1.4,2-2.4h4.5c-0.5,2-1.7,3.7-3.4,5 c-1.7,1.4-3.8,2-6.3,2H499z M499,192.6c-1.5,0-2.8,0.4-4,1.4s-1.9,2.2-2.1,4.1h11.9c0-1.7-0.6-2.9-1.8-4 C502,193.1,500.6,192.6,499,192.6z"></path><path fill="#173B34" d="M521.8,211.1c-2.6,0-4.6-0.8-6.1-2.4c-1.5-1.6-2.2-4-2.2-7.1v-12.2h4.5v11.7c0,4.1,1.7,6.2,5,6.2 c3.4,0,3-0.6,4.2-1.8c1-1.2,1.7-2.9,1.7-5.1v-11h4.5v21.3h-4l-0.3-3.8c-0.6,1.4-1.6,2.3-2.9,3.1c-1.3,0.7-2.7,1.2-4.4,1.2V211.1z"></path><path fill="#173B34" d="M548.2,210.6c-2.1,0-3.8-0.5-4.9-1.5c-1.3-1-1.9-2.8-1.9-5.4v-10.5h-3.7v-3.8h3.7l0.5-5.3h4v5.3h6v3.8h-6v10.5 c0,1.2,0.2,2,0.7,2.4c0.5,0.4,1.4,0.6,2.6,0.6h2.4v3.9H548.2z"></path><path fill="#173B34" d="M565.9,211.1c-2.1,0-4-0.4-5.6-1.4c-1.6-0.9-2.8-2.2-3.8-3.9s-1.4-3.6-1.4-5.8s0.4-4.2,1.4-5.9 c0.9-1.7,2.2-3,3.8-4c1.6-0.9,3.5-1.4,5.7-1.4s3.9,0.4,5.4,1.4c1.6,0.9,2.7,2.2,3.6,3.7c0.8,1.6,1.3,3.2,1.3,5.1c0,1.9,0,0.6,0,0.9 s0,0.7,0,1h-16.6c0.1,2.1,0.8,3.7,2,4.7c1.3,1,2.6,1.6,4.2,1.6c1.6,0,2.4-0.3,3.2-0.8c0.8-0.6,1.5-1.4,2-2.4h4.5 c-0.5,2-1.7,3.7-3.4,5c-1.7,1.4-3.8,2-6.3,2H565.9z M565.9,192.6c-1.5,0-2.8,0.4-4,1.4c-1.2,0.9-1.9,2.2-2.1,4.1h11.9 c0-1.7-0.6-2.9-1.8-4C569,193.1,567.6,192.6,565.9,192.6z"></path><path fill="#173B34" d="M581,210.6v-21.3h4.1l0.4,4c0.7-1.4,1.8-2.5,3.1-3.4c1.4-0.8,2.9-1.3,4.8-1.3v4.7h-1.3c-1.3,0-2.4,0.2-3.4,0.6 c-0.9,0.4-1.8,1.2-2.3,2.1c-0.6,0.9-0.8,2.3-0.8,4.1v10.2h-4.5L581,210.6z"></path><path fill="#173B34" d="M605.7,211.1c-2.7,0-4.9-0.6-6.6-2c-1.8-1.4-2.7-3-3-5.2h4.6c0.2,0.9,0.7,1.8,1.7,2.5c0.8,0.7,2,1,3.4,1 c1.4,0,2.4-0.3,3-0.8c0.6-0.5,0.9-1.3,0.9-2c0-1-0.4-1.8-1.3-2.2s-2.1-0.7-3.7-1c-1.2-0.2-2.4-0.6-3.6-1s-2.2-1-2.9-1.8 c-0.7-0.7-1.2-1.9-1.2-3.1s0.7-3.4,2.1-4.6c1.5-1.3,3.5-1.9,6-1.9s4.3,0.5,5.8,1.7c1.5,1.2,2.3,2.7,2.6,4.8h-4.4 c-0.1-0.9-0.5-1.7-1.3-2.1c-0.7-0.4-1.7-0.7-2.8-0.7c-1.2,0-2,0.2-2.6,0.7s-0.9,1-0.9,1.8s0.4,1.4,1.3,1.8c0.8,0.4,2,0.8,3.5,1.2 c1.5,0.3,2.7,0.6,4,1s2.2,1,2.9,1.8c0.7,0.8,1.2,2,1.2,3.6c0,2-0.7,3.6-2.2,4.8c-1.6,1.3-3.6,1.9-6.2,1.9L605.7,211.1z"></path></g></svg>